<svg width="46" height="41" viewBox="0 0 46 41" fill="none" xmlns="http://www.w3.org/2000/svg">
<path d="M42.1897 26.2556C43.2421 26.7804 44.1737 27.435 44.7797 28.0754C45.3856 28.7158 45.6162 29.2895 45.4208 29.6703C45.3252 29.8599 45.1275 29.9964 44.8391 30.0719C44.5507 30.1474 44.1772 30.1605 43.7399 30.1104C43.3027 30.0604 42.8103 29.9481 42.291 29.7801C41.7718 29.6121 41.2358 29.3916 40.7138 29.1313C39.6614 28.6065 38.7298 27.9519 38.1239 27.3115C37.5179 26.6711 37.2873 26.0974 37.4828 25.7166C37.6783 25.3357 38.2838 25.179 39.1661 25.2808C40.0485 25.3826 41.1354 25.7346 42.1878 26.2594L42.1897 26.2556ZM36.0838 28.1304C35.9417 28.8403 35.407 29.4351 34.5973 29.7843C33.7875 30.1334 32.7689 30.2083 31.7653 29.9925C30.7617 29.7769 29.8551 29.2883 29.2447 28.634C28.6342 27.9797 28.3698 27.2132 28.5096 26.503C28.6512 25.7934 29.1851 25.1985 29.9941 24.849C30.803 24.4996 31.8209 24.424 32.8242 24.639C33.8278 24.8545 34.7344 25.3432 35.3448 25.9975C35.9553 26.6518 36.2197 27.4183 36.0799 28.1285L36.0838 28.1304ZM26.2837 26.0085C26.8905 26.7862 26.9625 27.884 26.484 29.061C26.0055 30.238 25.0155 31.3979 23.7314 32.2862C23.0948 32.7266 22.405 33.087 21.7012 33.3466C20.9975 33.6062 20.2938 33.7601 19.6301 33.7993C18.9665 33.8386 18.356 33.7625 17.8335 33.5755C17.311 33.3884 16.8867 33.094 16.5849 32.7091C15.9769 31.9314 15.9045 30.8327 16.3835 29.6548C16.8624 28.4769 17.8536 27.3161 19.1391 26.4276C19.7759 25.9875 20.4658 25.6275 21.1695 25.3682C21.8732 25.1089 22.5768 24.9555 23.2403 24.9165C23.9037 24.8776 24.514 24.954 25.0362 25.1414C25.5584 25.3288 25.9823 25.6234 26.2837 26.0085ZM10.5299 35.903C8.78372 37.7066 6.84369 39.1885 5.136 40.0232C3.42832 40.8578 2.09268 40.977 1.42253 40.3545C1.09017 40.0461 0.931572 39.5644 0.955815 38.9369C0.980059 38.3095 1.18666 37.5487 1.56382 36.6979C1.94098 35.8471 2.48129 34.9231 3.15389 33.9786C3.82648 33.0342 4.61817 32.0878 5.4837 31.1936C6.349 30.2997 7.2711 29.4756 8.19733 28.7682C9.12355 28.0609 10.0358 27.4841 10.8818 27.0709C11.7279 26.6577 12.4913 26.4162 13.1284 26.3601C13.7655 26.304 14.2638 26.4345 14.5949 26.744C14.9273 27.0525 15.0859 27.5342 15.0616 28.1616C15.0374 28.789 14.8308 29.5499 14.4536 30.4006C14.0765 31.2514 13.5361 32.1754 12.8635 33.1199C12.1909 34.0644 11.3993 35.0108 10.5337 35.905L10.5299 35.903ZM37.8167 22.3146C38.0105 22.5175 38.1861 22.7338 38.3335 22.9511C38.4809 23.1684 38.5971 23.3825 38.6755 23.5811C38.7539 23.7797 38.7929 23.9589 38.7903 24.1084C38.7878 24.2579 38.7437 24.3748 38.6606 24.4524C38.5778 24.5304 38.4577 24.5676 38.307 24.5619C38.1562 24.5562 37.9779 24.5076 37.7822 24.4189C37.5866 24.3303 37.3774 24.2033 37.1666 24.0453C36.9559 23.8873 36.7478 23.7013 36.5542 23.4981C36.1642 23.0897 35.8562 22.6357 35.6976 22.2357C35.539 21.8357 35.5429 21.5223 35.7084 21.3642C35.7911 21.2862 35.9112 21.2489 36.062 21.2547C36.2127 21.2604 36.391 21.309 36.5867 21.3976C36.7824 21.4863 36.9916 21.6133 37.2023 21.7713C37.413 21.9293 37.6212 22.1152 37.8147 22.3185L37.8167 22.3146ZM34.0799 20.8214C34.3452 21.0348 34.5855 21.2737 34.7869 21.5244C34.9882 21.7751 35.1468 22.0327 35.2535 22.2824C35.3601 22.5322 35.4128 22.7692 35.4085 22.9799C35.4041 23.1905 35.3428 23.3707 35.2281 23.5101C34.9983 23.7921 34.5656 23.8918 34.025 23.7873C33.4845 23.6828 32.8804 23.3826 32.3455 22.9527C32.0802 22.7393 31.8399 22.5004 31.6385 22.2497C31.4372 21.999 31.2786 21.7414 31.1719 21.4917C31.0653 21.2419 31.0126 21.0049 31.0169 20.7942C31.0213 20.5836 31.0826 20.4034 31.1973 20.264C31.4271 19.982 31.8598 19.8822 32.4004 19.9868C32.9409 20.0913 33.545 20.3915 34.0799 20.8214ZM34.3272 17.5976C34.5621 18.1002 34.6958 18.626 34.6994 19.0602C34.7029 19.4944 34.5758 19.8018 34.346 19.9153C34.1145 20.0278 33.7984 19.9354 33.4674 19.6585C33.1363 19.3816 32.8173 18.9428 32.5805 18.4386C32.3449 17.934 32.2111 17.4062 32.2087 16.9712C32.2063 16.5363 32.3354 16.2297 32.5676 16.1189C32.7996 16.0084 33.1155 16.1022 33.4461 16.3797C33.7767 16.6573 34.0949 17.0959 34.3311 17.5995L34.3272 17.5976ZM19.3004 22.4827C18.2455 23.4925 17.0291 24.2565 15.9183 24.6071C14.8076 24.9577 13.8934 24.866 13.3767 24.3523C13.1206 24.0978 12.97 23.7472 12.9334 23.3205C12.8968 22.8937 12.9749 22.3993 13.1633 21.8654C13.3518 21.3314 13.6468 20.7684 14.0315 20.2086C14.4163 19.6487 14.8833 19.1029 15.4058 18.6024C15.9286 18.1018 16.4967 17.6564 17.0776 17.2916C17.6586 16.9268 18.2409 16.6498 18.7914 16.4763C19.3419 16.3029 19.8497 16.2364 20.2859 16.2808C20.722 16.3251 21.078 16.4794 21.3333 16.7348C21.5894 16.9893 21.74 17.3399 21.7766 17.7666C21.8132 18.1934 21.7351 18.6878 21.5467 19.2217C21.3583 19.7557 21.0633 20.3187 20.6785 20.8785C20.2937 21.4384 19.8268 21.9842 19.3043 22.4847L19.3004 22.4827ZM29.3371 20.1347C29.4179 20.5327 29.4073 20.9449 29.306 21.3479C29.2047 21.7509 29.0146 22.1367 28.7466 22.4832C28.4786 22.8298 28.138 23.1302 27.7442 23.3674C27.3505 23.6046 26.9113 23.774 26.4518 23.8657C25.5258 24.0514 24.5731 23.9112 23.8031 23.4758C23.033 23.0404 22.5085 22.3454 22.3447 21.5434C22.2631 21.1456 22.2729 20.7334 22.3734 20.3304C22.4739 19.9273 22.6632 19.5413 22.9305 19.1944C23.1977 18.8476 23.5377 18.5466 23.931 18.3088C24.3242 18.071 24.763 17.901 25.2223 17.8085C25.6813 17.7161 26.1517 17.7029 26.6067 17.7696C27.0617 17.8364 27.4924 17.9819 27.8742 18.1977C28.2559 18.4135 28.5813 18.6955 28.8316 19.0275C29.082 19.3596 29.2525 19.7351 29.3333 20.1328L29.3371 20.1347ZM31.6721 14.7153C31.7515 15.0834 31.7822 15.4588 31.7627 15.8202C31.7431 16.1816 31.6736 16.5218 31.5581 16.8215C31.4426 17.1212 31.2833 17.3744 31.0895 17.5668C30.8957 17.7591 30.671 17.8867 30.4283 17.9424C30.1856 17.9986 29.9296 17.9817 29.6749 17.8926C29.4203 17.8035 29.1719 17.644 28.9441 17.4232C28.7162 17.2023 28.5134 16.9246 28.3471 16.6057C28.1809 16.2868 28.0545 15.9331 27.9752 15.5649C27.8958 15.1968 27.8651 14.8214 27.8846 14.46C27.9042 14.0986 27.9737 13.7583 28.0892 13.4587C28.2047 13.159 28.364 12.9057 28.5578 12.7134C28.7517 12.5211 28.9763 12.3934 29.219 12.3378C29.4617 12.2815 29.7177 12.2985 29.9724 12.3876C30.227 12.4767 30.4754 12.6362 30.7032 12.857C30.9311 13.0778 31.1339 13.3556 31.3002 13.6745C31.4664 13.9933 31.5928 14.347 31.6721 14.7153ZM32.7761 10.4086C32.842 11.0122 32.812 11.6007 32.6927 12.0457C32.5734 12.4906 32.3744 12.7561 32.1392 12.7841C31.9029 12.811 31.6494 12.5962 31.4346 12.187C31.2197 11.7777 31.061 11.2075 30.9932 10.6015C30.9601 10.301 30.9504 10.001 30.9646 9.71853C30.9789 9.43609 31.0169 9.1768 31.0764 8.95548C31.1359 8.73415 31.2158 8.55513 31.3115 8.42865C31.4071 8.30217 31.5168 8.2307 31.6341 8.21833C31.8704 8.1931 32.1236 8.40912 32.338 8.81899C32.5525 9.22887 32.7107 9.79914 32.7781 10.4047L32.7761 10.4086ZM27.1293 12.8827C26.7666 13.309 26.3618 13.694 25.9383 14.0156C25.5147 14.3372 25.0807 14.5891 24.661 14.7569C24.2414 14.9247 23.8443 15.005 23.4926 14.9933C23.1409 14.9816 22.8415 14.8781 22.6115 14.6887C22.1486 14.3071 21.9949 13.6009 22.1842 12.7251C22.3735 11.8494 22.8902 10.8756 23.6211 10.0175C23.9834 9.59173 24.3876 9.20725 24.8105 8.88596C25.2335 8.56468 25.667 8.3129 26.0862 8.14501C26.5053 7.97712 26.902 7.8964 27.2536 7.90747C27.6052 7.91854 27.9047 8.02118 28.135 8.20953C28.5998 8.58995 28.7549 9.29596 28.5663 10.1723C28.3777 11.0487 27.8608 12.0236 27.1293 12.8827ZM33.6789 4.92424C33.412 5.37622 33.1128 5.80332 32.7983 6.18114C32.4838 6.55896 32.1602 6.88009 31.846 7.12621C31.5318 7.37232 31.2331 7.53861 30.967 7.61555C30.7009 7.6925 30.4726 7.67861 30.2951 7.57467C29.9378 7.36396 29.8089 6.80032 29.9365 6.00743C30.0642 5.21455 30.438 4.25719 30.976 3.34545C31.2429 2.89346 31.5421 2.46637 31.8566 2.08855C32.1711 1.71074 32.4947 1.3896 32.8089 1.14348C33.1231 0.897363 33.4218 0.731083 33.6879 0.654134C33.954 0.577187 34.1823 0.591078 34.3598 0.695019C34.7171 0.905728 34.846 1.46937 34.7184 2.26226C34.5907 3.05514 34.2169 4.0125 33.6789 4.92424Z" fill="white"/>
</svg>
