<svg width="32" height="9" viewBox="0 0 32 9" fill="none" xmlns="http://www.w3.org/2000/svg">
<path d="M28.8059 8.75315C30.2149 8.75315 31.6584 7.6697 31.9523 5.78656C32.2462 3.89483 31.1398 2.80278 29.7308 2.80278C28.3218 2.80278 26.8783 3.89482 26.58 5.78226C26.2905 7.674 27.3969 8.75315 28.8059 8.75315ZM28.9572 7.78578C28.0668 7.78578 27.6303 6.99039 27.8161 5.78226C28.002 4.58703 28.6849 3.78304 29.5795 3.78304C30.4785 3.78304 30.9151 4.58703 30.7292 5.78226C30.5434 6.98609 29.8561 7.78578 28.9572 7.78578ZM23.5719 8.61986H24.7605L25.6422 2.94466H24.4493L23.5719 8.61986ZM25.2056 1.88701C25.6422 1.88701 25.9966 1.60755 26.0657 1.17331C26.1305 0.751964 25.8626 0.472503 25.4261 0.472503C24.9939 0.472503 24.6481 0.751964 24.5833 1.17331C24.5141 1.60325 24.7734 1.88701 25.2056 1.88701ZM18.9862 8.75315C19.6302 8.75315 20.2742 8.41349 20.7669 7.97925H20.8101L20.8015 8.61986H21.7783L23.0533 0.399414H21.8604L21.5319 2.50612L21.4411 3.44339C21.0349 3.05214 20.6589 2.80278 20.0062 2.80278C18.7312 2.80278 17.3784 3.94642 17.0932 5.78226C16.8036 7.674 17.5556 8.75315 18.9862 8.75315ZM19.4184 7.77288C18.5281 7.77288 18.1305 7.06348 18.3293 5.77366C18.5194 4.54404 19.2801 3.79594 20.0797 3.79594C20.5033 3.79594 20.8879 3.92492 21.251 4.31187L20.8188 7.08498C20.3347 7.55791 19.8939 7.77288 19.4184 7.77288ZM12.2698 8.75315C13.0477 8.75315 13.6658 8.3619 14.2795 7.76428H14.3098L14.2666 8.61986H15.2433L16.125 2.94466H14.9321L14.3227 6.88721C13.7522 7.48482 13.3503 7.73419 12.823 7.73419C12.1488 7.73419 11.9283 7.34294 12.0796 6.37128L12.6112 2.94896H11.4183L10.8651 6.51746C10.6404 7.95776 11.0466 8.75315 12.2698 8.75315ZM8.40155 8.75315C8.81646 8.75315 9.21409 8.64996 9.55553 8.54677L9.46909 7.6697C9.29621 7.74279 9.03688 7.80298 8.83807 7.80298C8.24595 7.80298 8.06011 7.45473 8.16816 6.77112L8.61333 3.89482H10.0958L10.2471 2.94896H8.7646L9.00663 1.37968H8.01256L7.63222 2.94896L6.73324 3.00915L6.59494 3.89482H7.42477L6.9796 6.76252C6.79375 7.95776 7.11358 8.75315 8.40155 8.75315ZM2.75264 8.75315C4.42095 8.75315 5.5879 7.76428 5.77807 6.54755C5.95095 5.42971 5.38477 4.87509 4.54197 4.49244L3.56086 4.0496C2.97739 3.80454 2.40688 3.55517 2.50628 2.89736C2.60137 2.29545 3.16756 1.9257 3.94552 1.9257C4.61976 1.9257 5.10815 2.18366 5.51875 2.605L6.27078 1.84401C6.00284 1.53575 5.6699 1.29002 5.29564 1.12431C4.92138 0.958598 4.51501 0.876973 4.10544 0.885245C2.65323 0.885245 1.45603 1.78382 1.27018 2.97905C1.0973 4.084 1.83205 4.65582 2.51925 4.96967L3.50467 5.42111C4.16162 5.73067 4.6457 5.94994 4.54197 6.63784C4.44256 7.28275 3.85476 7.71269 2.93417 7.71269C2.57211 7.70781 2.21541 7.62495 1.88862 7.46984C1.56183 7.31472 1.27269 7.09101 1.04111 6.81412L0.202637 7.6439C0.517307 8.00608 0.908898 8.29422 1.34914 8.48754C1.78937 8.68085 2.26727 8.77451 2.74832 8.76174L2.75264 8.75315Z" fill="white" fill-opacity="0.984314"/>
</svg>
