<svg width="40" height="12" viewBox="0 0 40 12" fill="none" xmlns="http://www.w3.org/2000/svg">
<path d="M35.9869 9.68049C36.7476 9.68049 37.5774 9.41822 38.2603 9.00118L37.9016 8.02092C37.4578 8.28866 36.951 8.43546 36.4321 8.44656C35.5244 8.44656 34.9626 7.92203 35.0274 6.91597H38.8135C38.887 6.77409 38.9777 6.47743 39.0339 6.17218C39.3581 4.49541 38.7184 3.25718 37.0285 3.25718C35.5677 3.25718 33.9253 4.49111 33.5449 6.46883C33.156 8.48955 34.2624 9.68049 35.9869 9.68049ZM35.2089 5.84542C35.5028 4.95975 36.1598 4.50401 36.8081 4.50401C37.6033 4.50401 37.8756 5.02854 37.7157 5.84542H35.2089ZM28.0343 9.68049C28.8685 9.68049 29.5384 9.27634 30.1867 8.64863H30.2299L30.1867 9.52571H31.5006L32.6805 3.41196H31.0684L30.2688 7.53939C29.7502 8.08541 29.3785 8.30468 28.8728 8.30468C28.2807 8.30468 28.0819 7.96073 28.2634 7.02776L28.9593 3.41196H27.3471L26.6124 7.23413C26.3098 8.76042 26.7075 9.68049 28.0387 9.68049H28.0343ZM22.3293 11.8732H23.9284L25.5621 3.41196H24.3001L24.0537 4.01388H24.0105C23.8424 3.76856 23.6139 3.57019 23.3468 3.43772C23.0797 3.30525 22.783 3.24309 22.4848 3.25718C21.158 3.25718 19.6712 4.48251 19.2865 6.46883C18.8975 8.47665 19.6539 9.68049 21.1796 9.68049C21.7847 9.68049 22.4459 9.37523 22.9473 8.94959L22.7009 9.92985L22.3293 11.8732ZM21.8538 8.35627C21.0413 8.35627 20.6998 7.72426 20.9462 6.45594C21.1839 5.23491 21.8884 4.5771 22.5799 4.5771C22.9689 4.5771 23.3363 4.69748 23.6475 5.03714L23.1288 7.72426C22.675 8.1843 22.2817 8.35627 21.8538 8.35627ZM15.5955 9.52571H17.212L18.3919 3.41196H16.7754L15.5955 9.52571ZM17.7781 2.4317C18.327 2.4317 18.7765 2.07915 18.8803 1.54172C18.984 1.0172 18.6642 0.668945 18.1153 0.668945C17.5534 0.668945 17.1039 1.0215 17.0045 1.54172C16.9008 2.07915 17.2206 2.4274 17.7781 2.4274V2.4317ZM8.44254 9.52141H10.059L10.8715 5.3166C11.4075 4.86946 11.7705 4.62869 12.2762 4.62869C12.8813 4.62869 13.0801 4.95545 12.8986 5.90561L12.1984 9.52141H13.8148L14.5496 5.71214C14.8435 4.17296 14.4502 3.25288 13.1233 3.25288C12.2892 3.25288 11.5803 3.69142 10.9407 4.21595H10.9061L10.9407 3.40766H9.62678L8.44254 9.52141ZM3.34253 9.67619C5.33067 9.67619 6.69211 8.57124 7.21076 5.88412L8.07084 1.42994H6.51491L5.62457 6.0303C5.30042 7.70706 4.57431 8.27888 3.6105 8.27888C2.66397 8.27888 2.18422 7.71136 2.50838 6.026L3.3944 1.42994H1.76931L0.909224 5.88412C0.390579 8.57124 1.36304 9.67619 3.33821 9.67619H3.34253Z" fill="white"/>
</svg>
